<svg xmlns="http://www.w3.org/2000/svg" width="25.503" height="25.503" viewBox="0 0 25.503 25.503">
  <g id="Group_188157" data-name="Group 188157" transform="translate(0 0)">
    <g id="Path_154692" data-name="Path 154692" fill="#eff2f5" opacity="0.091">
      <path d="M 12.75146389007568 25.0029239654541 C 9.478974342346191 25.0029239654541 6.402363777160645 23.72855377197266 4.08837366104126 21.41455459594727 C 1.774373888969421 19.10056304931641 0.5000038743019104 16.02395439147949 0.5000038743019104 12.75146389007568 C 0.5000038743019104 9.478974342346191 1.774373888969421 6.402363777160645 4.08837366104126 4.08837366104126 C 6.402363777160645 1.774373888969421 9.478974342346191 0.5000038743019104 12.75146389007568 0.5000038743019104 C 16.02395439147949 0.5000038743019104 19.10056304931641 1.774373888969421 21.41455459594727 4.08837366104126 C 23.72855377197266 6.402363777160645 25.0029239654541 9.478974342346191 25.0029239654541 12.75146389007568 C 25.0029239654541 16.02395439147949 23.72855377197266 19.10056304931641 21.41455459594727 21.41455459594727 C 19.10056304931641 23.72855377197266 16.02395439147949 25.0029239654541 12.75146389007568 25.0029239654541 Z" stroke="none"/>
      <path d="M 12.75146389007568 1.000003814697266 C 9.612533569335938 1.000003814697266 6.661483764648438 2.22236442565918 4.441923141479492 4.441923141479492 C 2.22236442565918 6.661483764648438 1.000003814697266 9.612533569335938 1.000003814697266 12.75146389007568 C 1.000003814697266 15.89039421081543 2.22236442565918 18.84144401550293 4.441923141479492 21.06100463867188 C 6.661483764648438 23.28056335449219 9.612533569335938 24.5029239654541 12.75146389007568 24.5029239654541 C 15.89039421081543 24.5029239654541 18.84144401550293 23.28056335449219 21.06100463867188 21.06100463867188 C 23.28056335449219 18.84144401550293 24.5029239654541 15.89039421081543 24.5029239654541 12.75146389007568 C 24.5029239654541 9.612533569335938 23.28056335449219 6.661483764648438 21.06100463867188 4.441923141479492 C 18.84144401550293 2.22236442565918 15.89039421081543 1.000003814697266 12.75146389007568 1.000003814697266 M 12.75146389007568 3.814697265625e-06 C 19.79390335083008 3.814697265625e-06 25.5029239654541 5.709024429321289 25.5029239654541 12.75146389007568 C 25.5029239654541 19.79390335083008 19.79390335083008 25.5029239654541 12.75146389007568 25.5029239654541 C 5.709024429321289 25.5029239654541 3.814697265625e-06 19.79390335083008 3.814697265625e-06 12.75146389007568 C 3.814697265625e-06 5.709024429321289 5.709024429321289 3.814697265625e-06 12.75146389007568 3.814697265625e-06 Z" stroke="none" fill="#626c7a"/>
    </g>
    <g id="upload" transform="translate(8.696 7.624)">
      <path id="Path_154690" data-name="Path 154690" d="M11.814,5.51,10.621,4.318V9.571a.752.752,0,1,1-1.5,0V4.318L7.925,5.51A.752.752,0,0,1,6.861,4.447L9.338,1.97a.752.752,0,0,1,1.063,0l2.476,2.476A.752.752,0,1,1,11.814,5.51Z" transform="translate(-5.508 -1.75)" fill="#f6f6f6" opacity="0"/>
      <path id="Path_154691" data-name="Path 154691" d="M0,.752A.752.752,0,0,1,.752,0h9.325a.752.752,0,1,1,0,1.5H.752A.752.752,0,0,1,0,.752Z" transform="translate(1.064 0.507) rotate(45)" fill="#f6f6f6"/>
      <path id="Path_154799" data-name="Path 154799" d="M0,.752A.752.752,0,0,0,.752,1.5h9.325a.752.752,0,1,0,0-1.5H.752A.752.752,0,0,0,0,.752Z" transform="translate(8.721 1.571) rotate(135)" fill="#f6f6f6"/>
    </g>
  </g>
</svg>
