<svg xmlns="http://www.w3.org/2000/svg" width="17.629" height="12.375" viewBox="0 0 17.629 12.375">
  <g id="Group_188334" data-name="Group 188334" transform="translate(-1 0)">
    <g id="Group_188333" data-name="Group 188333" transform="translate(0 0)">
      <path id="Path_245127" data-name="Path 245127" d="M24.466,133.162h0l-5.6-5.6a.56.56,0,1,0-.789.789L22.72,133H7.56a.56.56,0,0,0,0,1.119H22.72l-4.64,4.64a.56.56,0,1,0,.789.789l5.6-5.6A.56.56,0,0,0,24.466,133.162Z" transform="translate(-6 -127.369)" fill="#fff"/>
      <path id="Path_245192" data-name="Path 245192" d="M24.466,133.162h0l-5.6-5.6a.56.56,0,1,0-.789.789L22.72,133H7.56a.56.56,0,0,0,0,1.119H22.72l-4.64,4.64a.56.56,0,1,0,.789.789l5.6-5.6A.56.56,0,0,0,24.466,133.162Z" transform="translate(-6 -127.369)" fill="#fff"/>
    </g>
  </g>
</svg>
